<svg width="21" height="21" viewBox="0 0 21 21" fill="none" xmlns="http://www.w3.org/2000/svg">
<path d="M14.875 2.62499C15.1048 2.39518 15.3777 2.21288 15.6779 2.0885C15.9782 1.96413 16.3 1.90012 16.625 1.90012C16.95 1.90012 17.2719 1.96413 17.5721 2.0885C17.8724 2.21288 18.1452 2.39518 18.375 2.62499C18.6048 2.8548 18.7871 3.12763 18.9115 3.4279C19.0359 3.72816 19.0999 4.04998 19.0999 4.37499C19.0999 4.69999 19.0359 5.02182 18.9115 5.32208C18.7871 5.62235 18.6048 5.89518 18.375 6.12499L6.56253 17.9375L1.75003 19.25L3.06253 14.4375L14.875 2.62499Z" stroke="white" stroke-width="1.75" stroke-linecap="round" stroke-linejoin="round"/>
</svg>
